<svg width="8" height="14" viewBox="0 0 8 14" fill="none" xmlns="http://www.w3.org/2000/svg">
<mask id="mask0_13_58" style="mask-type:alpha" maskUnits="userSpaceOnUse" x="0" y="0" width="8" height="14">
<g clip-path="url(#clip0_13_58)">
<path fill-rule="evenodd" clip-rule="evenodd" d="M0.146669 8.28318C0.686754 9.72322 2.07865 10.7485 3.71055 10.7485C5.40567 10.7485 6.84182 9.64229 7.33333 8.114C6.88689 11.001 4.85887 13.1421 3.78003 13.9187C2.70776 13.1147 0.704939 10.9966 0.146669 8.28318ZM0.0815125 5.8125C0.52552 2.99603 2.6498 0.817702 3.78003 0.0113144C4.84804 0.769465 6.86541 2.88117 7.3263 5.77125C6.82827 4.25416 5.39767 3.15841 3.71055 3.15841C2.00817 3.15841 0.566983 4.27407 0.0815125 5.8125ZM0.463281 6.95342C0.463281 7.04798 0.467342 7.14159 0.475298 7.23409L3.02357 5.24784L1.7812 4.34732C0.981672 4.93744 0.463281 5.88503 0.463281 6.95342ZM1.87259 7.08466L0.649678 8.03787C1.0168 9.0692 1.89274 9.86006 2.97627 10.1099L1.87259 7.08466ZM3.26291 8.73054L3.79608 10.192C4.94372 10.1624 5.9432 9.53869 6.49704 8.61787L3.26291 8.73054ZM5.21747 7.9215L6.82737 7.86542C6.91227 7.57614 6.95781 7.27009 6.95781 6.95342C6.95781 6.16563 6.67597 5.44352 6.20739 4.88198L5.21747 7.9215ZM3.71055 3.71377C4.41912 3.71377 5.0747 3.94019 5.60853 4.32446L5.11272 5.84684L2.49409 3.94875C2.86979 3.79721 3.2804 3.71377 3.71055 3.71377Z" fill="black"/>
</g>
</mask>
<g mask="url(#mask0_13_58)">
<rect x="-4.66666" y="-3.33334" width="14.6667" height="26" fill="#4B0780"/>
</g>
<defs>
<clipPath id="clip0_13_58">
<rect width="7.33333" height="14" fill="white"/>
</clipPath>
</defs>
</svg>
